# xmcd
#
# Track frame offsets: 
#        150
#        24100
#        42741
#        68222
#        92939
#        101514
#        123330
#        143323
#        158522
#        165965
#        188859
#        205436
#
# Disc length: 3191 seconds
#
# Revision: 1
# Processed by: cddbd v1.5.2PL0 Copyright (c) Steve Scherf et al.
# Submitted via: ExactAudioCopy v0.99pb5
#
DISCID=960c750c
DTITLE=Moody Blues, The - The Present - Remastered
DYEAR=2008
DGENRE=Art Rock
TTITLE0=Blue World
TTITLE1=Meet Me Halfway
TTITLE2=Sitting At The Wheel
TTITLE3=Going Nowhere
TTITLE4=Hole In The World
TTITLE5=Under My Feet
TTITLE6=It's Cold Outside Of Your Heart
TTITLE7=Running Water
TTITLE8=I Am
TTITLE9=Sorry
TTITLE10=Blue World (Single Edit) - Bonus Track
TTITLE11=Sitting At The Wheel (Steven Greenberg Remix) - Bonus Track
EXTD=
EXTT0=
EXTT1=
EXTT2=
EXTT3=
EXTT4=
EXTT5=
EXTT6=
EXTT7=
EXTT8=
EXTT9=
EXTT10=
EXTT11=
PLAYORDER=
